<mxfile host="app.diagrams.net" agent="Mozilla/5.0 (Windows NT 10.0; Win64; x64) AppleWebKit/537.36 (KHTML, like Gecko) Chrome/140.0.0.0 Safari/537.36 Edg/140.0.0.0" version="28.2.5">
  <diagram name="第 1 页" id="PRX9asHPqVV7ZKz13Wvs">
    <mxGraphModel dx="3437" dy="3306" grid="1" gridSize="10" guides="1" tooltips="1" connect="1" arrows="1" fold="1" page="1" pageScale="1" pageWidth="827" pageHeight="1169" math="0" shadow="0">
      <root>
        <mxCell id="0" />
        <mxCell id="1" parent="0" />
        <mxCell id="-eqFLUXX3JQwrmRsipEL-54" value="" style="edgeStyle=none;curved=1;rounded=0;orthogonalLoop=1;jettySize=auto;html=1;fontSize=12;startSize=8;endSize=8;entryX=1;entryY=0;entryDx=0;entryDy=0;entryPerimeter=0;exitX=-0.016;exitY=0.592;exitDx=0;exitDy=0;exitPerimeter=0;" edge="1" parent="1" source="-eqFLUXX3JQwrmRsipEL-52" target="-eqFLUXX3JQwrmRsipEL-53">
          <mxGeometry relative="1" as="geometry" />
        </mxCell>
        <mxCell id="-eqFLUXX3JQwrmRsipEL-52" value="" style="strokeWidth=2;html=1;shape=mxgraph.flowchart.annotation_1;align=left;pointerEvents=1;rotation=-90;" vertex="1" parent="1">
          <mxGeometry x="-760" y="-90" width="15" height="490" as="geometry" />
        </mxCell>
        <mxCell id="-eqFLUXX3JQwrmRsipEL-53" value="" style="strokeWidth=2;html=1;shape=mxgraph.flowchart.annotation_1;align=left;pointerEvents=1;rotation=-90;" vertex="1" parent="1">
          <mxGeometry x="-617.5" y="90" width="15" height="290" as="geometry" />
        </mxCell>
        <mxCell id="-eqFLUXX3JQwrmRsipEL-55" value="delayBufferSamples" style="text;whiteSpace=wrap;fontSize=14;" vertex="1" parent="1">
          <mxGeometry x="-670" y="130" width="140" height="40" as="geometry" />
        </mxCell>
        <mxCell id="-eqFLUXX3JQwrmRsipEL-56" style="edgeStyle=none;curved=1;rounded=0;orthogonalLoop=1;jettySize=auto;html=1;entryX=0.5;entryY=1;entryDx=0;entryDy=0;entryPerimeter=0;fontSize=12;startSize=8;endSize=8;exitX=0;exitY=1;exitDx=0;exitDy=0;exitPerimeter=0;" edge="1" parent="1" source="-eqFLUXX3JQwrmRsipEL-52" target="-eqFLUXX3JQwrmRsipEL-53">
          <mxGeometry relative="1" as="geometry" />
        </mxCell>
        <mxCell id="-eqFLUXX3JQwrmRsipEL-57" value="additionalCoreDelayBuffer" style="text;whiteSpace=wrap;fontSize=14;" vertex="1" parent="1">
          <mxGeometry x="-940" y="215" width="170" height="40" as="geometry" />
        </mxCell>
        <mxCell id="-eqFLUXX3JQwrmRsipEL-58" value="sampleBufRS" style="text;whiteSpace=wrap;fontSize=14;" vertex="1" parent="1">
          <mxGeometry x="-1100" y="140" width="110" height="40" as="geometry" />
        </mxCell>
        <mxCell id="-eqFLUXX3JQwrmRsipEL-1" value="-1层" style="locked=1;" visible="0" parent="0" />
        <mxCell id="-eqFLUXX3JQwrmRsipEL-2" value="" style="whiteSpace=wrap;html=1;fillColor=none;dashed=1;dashPattern=8 8;" vertex="1" parent="-eqFLUXX3JQwrmRsipEL-1">
          <mxGeometry x="40" y="110" width="1440" height="920" as="geometry" />
        </mxCell>
        <mxCell id="-eqFLUXX3JQwrmRsipEL-3" value="" style="whiteSpace=wrap;html=1;fillColor=none;dashed=1;dashPattern=8 8;" vertex="1" parent="-eqFLUXX3JQwrmRsipEL-1">
          <mxGeometry x="220" y="240" width="1050" height="520" as="geometry" />
        </mxCell>
        <mxCell id="-eqFLUXX3JQwrmRsipEL-4" style="" parent="0" />
        <mxCell id="-eqFLUXX3JQwrmRsipEL-5" value="" style="group" vertex="1" connectable="0" parent="-eqFLUXX3JQwrmRsipEL-4">
          <mxGeometry x="60" y="410" width="120" height="120" as="geometry" />
        </mxCell>
        <mxCell id="-eqFLUXX3JQwrmRsipEL-6" value="sampelBufRS[0][i]" style="rounded=0;whiteSpace=wrap;html=1;" vertex="1" parent="-eqFLUXX3JQwrmRsipEL-5">
          <mxGeometry width="120" height="60" as="geometry" />
        </mxCell>
        <mxCell id="-eqFLUXX3JQwrmRsipEL-7" value="sampelBufRS[1][i]" style="rounded=0;whiteSpace=wrap;html=1;" vertex="1" parent="-eqFLUXX3JQwrmRsipEL-5">
          <mxGeometry y="60" width="120" height="60" as="geometry" />
        </mxCell>
        <mxCell id="-eqFLUXX3JQwrmRsipEL-8" value="" style="edgeStyle=none;curved=1;rounded=0;orthogonalLoop=1;jettySize=auto;html=1;fontSize=12;startSize=8;endSize=8;entryX=0;entryY=0;entryDx=0;entryDy=0;" edge="1" parent="-eqFLUXX3JQwrmRsipEL-4" source="-eqFLUXX3JQwrmRsipEL-9" target="-eqFLUXX3JQwrmRsipEL-14">
          <mxGeometry relative="1" as="geometry">
            <mxPoint x="460" y="470" as="targetPoint" />
          </mxGeometry>
        </mxCell>
        <mxCell id="-eqFLUXX3JQwrmRsipEL-9" value="inputBuffer[i]" style="whiteSpace=wrap;html=1;rounded=0;" vertex="1" parent="-eqFLUXX3JQwrmRsipEL-4">
          <mxGeometry x="260" y="440" width="120" height="60" as="geometry" />
        </mxCell>
        <mxCell id="-eqFLUXX3JQwrmRsipEL-10" value="" style="edgeStyle=none;curved=1;rounded=0;orthogonalLoop=1;jettySize=auto;html=1;fontSize=12;startSize=8;endSize=8;exitX=1;exitY=1;exitDx=0;exitDy=0;" edge="1" parent="-eqFLUXX3JQwrmRsipEL-4" source="-eqFLUXX3JQwrmRsipEL-6" target="-eqFLUXX3JQwrmRsipEL-9">
          <mxGeometry relative="1" as="geometry" />
        </mxCell>
        <mxCell id="-eqFLUXX3JQwrmRsipEL-11" value="双通道转交错" style="text;html=1;align=center;verticalAlign=middle;resizable=0;points=[];autosize=1;strokeColor=none;fillColor=none;fontSize=11;" vertex="1" parent="-eqFLUXX3JQwrmRsipEL-4">
          <mxGeometry x="170" y="440" width="90" height="30" as="geometry" />
        </mxCell>
        <mxCell id="-eqFLUXX3JQwrmRsipEL-12" value="" style="group" vertex="1" connectable="0" parent="-eqFLUXX3JQwrmRsipEL-4">
          <mxGeometry x="470" y="410" width="120" height="120" as="geometry" />
        </mxCell>
        <mxCell id="-eqFLUXX3JQwrmRsipEL-13" value="in[0][i]" style="rounded=0;whiteSpace=wrap;html=1;" vertex="1" parent="-eqFLUXX3JQwrmRsipEL-12">
          <mxGeometry width="120" height="60" as="geometry" />
        </mxCell>
        <mxCell id="-eqFLUXX3JQwrmRsipEL-14" value="in[1][i]" style="rounded=0;whiteSpace=wrap;html=1;" vertex="1" parent="-eqFLUXX3JQwrmRsipEL-12">
          <mxGeometry y="60" width="120" height="60" as="geometry" />
        </mxCell>
        <mxCell id="-eqFLUXX3JQwrmRsipEL-15" value="交错转双通道&lt;div&gt;并乘以权重&lt;/div&gt;" style="text;html=1;align=center;verticalAlign=middle;resizable=0;points=[];autosize=1;strokeColor=none;fillColor=none;fontSize=11;" vertex="1" parent="-eqFLUXX3JQwrmRsipEL-4">
          <mxGeometry x="380" y="430" width="90" height="40" as="geometry" />
        </mxCell>
        <mxCell id="-eqFLUXX3JQwrmRsipEL-16" value="" style="group" vertex="1" connectable="0" parent="-eqFLUXX3JQwrmRsipEL-4">
          <mxGeometry x="650" y="410" width="240" height="120" as="geometry" />
        </mxCell>
        <mxCell id="-eqFLUXX3JQwrmRsipEL-17" value="mQmfReal[0][63]" style="rounded=0;whiteSpace=wrap;html=1;container=0;" vertex="1" parent="-eqFLUXX3JQwrmRsipEL-16">
          <mxGeometry width="120" height="60" as="geometry" />
        </mxCell>
        <mxCell id="-eqFLUXX3JQwrmRsipEL-18" value="mQmfReal[1][63]" style="rounded=0;whiteSpace=wrap;html=1;container=0;" vertex="1" parent="-eqFLUXX3JQwrmRsipEL-16">
          <mxGeometry y="60" width="120" height="60" as="geometry" />
        </mxCell>
        <mxCell id="-eqFLUXX3JQwrmRsipEL-19" value="mQmfImag[0][63]" style="rounded=0;whiteSpace=wrap;html=1;container=0;" vertex="1" parent="-eqFLUXX3JQwrmRsipEL-16">
          <mxGeometry x="120" width="120" height="60" as="geometry" />
        </mxCell>
        <mxCell id="-eqFLUXX3JQwrmRsipEL-20" value="mQmfImag[1][63]" style="rounded=0;whiteSpace=wrap;html=1;container=0;" vertex="1" parent="-eqFLUXX3JQwrmRsipEL-16">
          <mxGeometry x="120" y="60" width="120" height="60" as="geometry" />
        </mxCell>
        <mxCell id="-eqFLUXX3JQwrmRsipEL-21" value="" style="edgeStyle=orthogonalEdgeStyle;rounded=0;orthogonalLoop=1;jettySize=auto;html=1;" edge="1" parent="-eqFLUXX3JQwrmRsipEL-4" source="-eqFLUXX3JQwrmRsipEL-13" target="-eqFLUXX3JQwrmRsipEL-18">
          <mxGeometry relative="1" as="geometry">
            <Array as="points">
              <mxPoint x="610" y="470" />
              <mxPoint x="610" y="470" />
            </Array>
          </mxGeometry>
        </mxCell>
        <mxCell id="-eqFLUXX3JQwrmRsipEL-22" value="" style="group" vertex="1" connectable="0" parent="-eqFLUXX3JQwrmRsipEL-4">
          <mxGeometry x="950" y="410" width="240" height="120" as="geometry" />
        </mxCell>
        <mxCell id="-eqFLUXX3JQwrmRsipEL-23" value="mHybridReal[0][63]" style="rounded=0;whiteSpace=wrap;html=1;container=0;" vertex="1" parent="-eqFLUXX3JQwrmRsipEL-22">
          <mxGeometry width="120" height="60" as="geometry" />
        </mxCell>
        <mxCell id="-eqFLUXX3JQwrmRsipEL-24" value="mHybridImag[1][63]" style="rounded=0;whiteSpace=wrap;html=1;container=0;" vertex="1" parent="-eqFLUXX3JQwrmRsipEL-22">
          <mxGeometry y="60" width="120" height="60" as="geometry" />
        </mxCell>
        <mxCell id="-eqFLUXX3JQwrmRsipEL-25" value="mHybridReal[0][63]" style="rounded=0;whiteSpace=wrap;html=1;container=0;" vertex="1" parent="-eqFLUXX3JQwrmRsipEL-22">
          <mxGeometry x="120" width="120" height="60" as="geometry" />
        </mxCell>
        <mxCell id="-eqFLUXX3JQwrmRsipEL-26" value="mHybridImag[1][63]" style="rounded=0;whiteSpace=wrap;html=1;container=0;" vertex="1" parent="-eqFLUXX3JQwrmRsipEL-22">
          <mxGeometry x="120" y="60" width="120" height="60" as="geometry" />
        </mxCell>
        <mxCell id="-eqFLUXX3JQwrmRsipEL-27" value="" style="edgeStyle=orthogonalEdgeStyle;rounded=0;orthogonalLoop=1;jettySize=auto;html=1;" edge="1" parent="-eqFLUXX3JQwrmRsipEL-4" source="-eqFLUXX3JQwrmRsipEL-19" target="-eqFLUXX3JQwrmRsipEL-24">
          <mxGeometry relative="1" as="geometry">
            <Array as="points">
              <mxPoint x="910" y="470" />
              <mxPoint x="910" y="470" />
            </Array>
          </mxGeometry>
        </mxCell>
        <mxCell id="-eqFLUXX3JQwrmRsipEL-28" value="QMF域" style="text;html=1;align=center;verticalAlign=middle;resizable=0;points=[];autosize=1;strokeColor=none;fillColor=none;" vertex="1" parent="-eqFLUXX3JQwrmRsipEL-4">
          <mxGeometry x="890" y="350" width="60" height="30" as="geometry" />
        </mxCell>
        <mxCell id="-eqFLUXX3JQwrmRsipEL-29" value="" style="edgeStyle=orthogonalEdgeStyle;rounded=0;orthogonalLoop=1;jettySize=auto;html=1;" edge="1" parent="-eqFLUXX3JQwrmRsipEL-4" source="-eqFLUXX3JQwrmRsipEL-30" target="-eqFLUXX3JQwrmRsipEL-37">
          <mxGeometry relative="1" as="geometry" />
        </mxCell>
        <mxCell id="-eqFLUXX3JQwrmRsipEL-30" value="downmixBuffer[i]" style="whiteSpace=wrap;html=1;rounded=0;" vertex="1" parent="-eqFLUXX3JQwrmRsipEL-4">
          <mxGeometry x="1010" y="640" width="120" height="60" as="geometry" />
        </mxCell>
        <mxCell id="-eqFLUXX3JQwrmRsipEL-31" value="" style="edgeStyle=orthogonalEdgeStyle;rounded=0;orthogonalLoop=1;jettySize=auto;html=1;" edge="1" parent="-eqFLUXX3JQwrmRsipEL-4" source="-eqFLUXX3JQwrmRsipEL-32" target="-eqFLUXX3JQwrmRsipEL-34">
          <mxGeometry relative="1" as="geometry" />
        </mxCell>
        <mxCell id="-eqFLUXX3JQwrmRsipEL-32" value="sampleBufRS[i]" style="whiteSpace=wrap;html=1;rounded=0;" vertex="1" parent="-eqFLUXX3JQwrmRsipEL-4">
          <mxGeometry x="650" y="640" width="120" height="60" as="geometry" />
        </mxCell>
        <mxCell id="-eqFLUXX3JQwrmRsipEL-33" value="" style="edgeStyle=orthogonalEdgeStyle;rounded=0;orthogonalLoop=1;jettySize=auto;html=1;" edge="1" parent="-eqFLUXX3JQwrmRsipEL-4" source="-eqFLUXX3JQwrmRsipEL-34" target="-eqFLUXX3JQwrmRsipEL-39">
          <mxGeometry relative="1" as="geometry" />
        </mxCell>
        <mxCell id="-eqFLUXX3JQwrmRsipEL-34" value="tmpBufRS[i]" style="whiteSpace=wrap;html=1;rounded=0;" vertex="1" parent="-eqFLUXX3JQwrmRsipEL-4">
          <mxGeometry x="480" y="810" width="120" height="60" as="geometry" />
        </mxCell>
        <mxCell id="-eqFLUXX3JQwrmRsipEL-35" value="加入延迟" style="text;html=1;align=center;verticalAlign=middle;resizable=0;points=[];autosize=1;strokeColor=none;fillColor=none;" vertex="1" parent="-eqFLUXX3JQwrmRsipEL-4">
          <mxGeometry x="580" y="640" width="70" height="30" as="geometry" />
        </mxCell>
        <mxCell id="-eqFLUXX3JQwrmRsipEL-36" value="" style="edgeStyle=orthogonalEdgeStyle;rounded=0;orthogonalLoop=1;jettySize=auto;html=1;" edge="1" parent="-eqFLUXX3JQwrmRsipEL-4" source="-eqFLUXX3JQwrmRsipEL-37" target="-eqFLUXX3JQwrmRsipEL-32">
          <mxGeometry relative="1" as="geometry" />
        </mxCell>
        <mxCell id="-eqFLUXX3JQwrmRsipEL-37" value="downmixBuffer[i]&lt;div&gt;（和信号、差信号交错）&lt;/div&gt;" style="whiteSpace=wrap;html=1;rounded=0;" vertex="1" parent="-eqFLUXX3JQwrmRsipEL-4">
          <mxGeometry x="830" y="640" width="140" height="60" as="geometry" />
        </mxCell>
        <mxCell id="-eqFLUXX3JQwrmRsipEL-38" value="" style="edgeStyle=orthogonalEdgeStyle;rounded=0;orthogonalLoop=1;jettySize=auto;html=1;" edge="1" parent="-eqFLUXX3JQwrmRsipEL-4" source="-eqFLUXX3JQwrmRsipEL-39" target="-eqFLUXX3JQwrmRsipEL-42">
          <mxGeometry relative="1" as="geometry" />
        </mxCell>
        <mxCell id="-eqFLUXX3JQwrmRsipEL-39" value="sampleBuf[i]" style="whiteSpace=wrap;html=1;rounded=0;" vertex="1" parent="-eqFLUXX3JQwrmRsipEL-4">
          <mxGeometry x="290" y="810" width="120" height="60" as="geometry" />
        </mxCell>
        <mxCell id="-eqFLUXX3JQwrmRsipEL-40" value="下采样" style="text;html=1;align=center;verticalAlign=middle;resizable=0;points=[];autosize=1;strokeColor=none;fillColor=none;" vertex="1" parent="-eqFLUXX3JQwrmRsipEL-4">
          <mxGeometry x="410.5" y="810" width="60" height="30" as="geometry" />
        </mxCell>
        <mxCell id="-eqFLUXX3JQwrmRsipEL-41" value="恢复时域" style="text;html=1;align=center;verticalAlign=middle;resizable=0;points=[];autosize=1;strokeColor=none;fillColor=none;" vertex="1" parent="-eqFLUXX3JQwrmRsipEL-4">
          <mxGeometry x="1080" y="600" width="70" height="30" as="geometry" />
        </mxCell>
        <mxCell id="-eqFLUXX3JQwrmRsipEL-42" value="encSampleBuf[i]" style="whiteSpace=wrap;html=1;rounded=0;" vertex="1" parent="-eqFLUXX3JQwrmRsipEL-4">
          <mxGeometry x="100" y="810" width="120" height="60" as="geometry" />
        </mxCell>
        <mxCell id="-eqFLUXX3JQwrmRsipEL-43" value="&lt;strong data-end=&quot;1541&quot; data-start=&quot;1520&quot;&gt;带通 FIR 滤波的下采样&lt;/strong&gt;" style="text;whiteSpace=wrap;html=1;" vertex="1" parent="-eqFLUXX3JQwrmRsipEL-4">
          <mxGeometry x="295" y="890" width="130" height="30" as="geometry" />
        </mxCell>
        <mxCell id="-eqFLUXX3JQwrmRsipEL-44" value="MPS处理结束" style="text;html=1;align=center;verticalAlign=middle;resizable=0;points=[];autosize=1;strokeColor=none;fillColor=none;" vertex="1" parent="-eqFLUXX3JQwrmRsipEL-4">
          <mxGeometry x="660" y="710" width="100" height="30" as="geometry" />
        </mxCell>
        <mxCell id="-eqFLUXX3JQwrmRsipEL-45" style="edgeStyle=orthogonalEdgeStyle;rounded=0;orthogonalLoop=1;jettySize=auto;html=1;" edge="1" parent="-eqFLUXX3JQwrmRsipEL-4" source="-eqFLUXX3JQwrmRsipEL-26" target="-eqFLUXX3JQwrmRsipEL-30">
          <mxGeometry relative="1" as="geometry" />
        </mxCell>
        <mxCell id="-eqFLUXX3JQwrmRsipEL-46" value="MPS处理" style="text;html=1;align=center;verticalAlign=middle;resizable=0;points=[];autosize=1;strokeColor=none;fillColor=none;" vertex="1" parent="-eqFLUXX3JQwrmRsipEL-4">
          <mxGeometry x="707.5" y="250" width="70" height="30" as="geometry" />
        </mxCell>
        <mxCell id="-eqFLUXX3JQwrmRsipEL-47" value="" style="endArrow=none;dashed=1;html=1;dashPattern=1 3;strokeWidth=2;rounded=0;exitX=0.5;exitY=1;exitDx=0;exitDy=0;entryX=0.5;entryY=0;entryDx=0;entryDy=0;" edge="1" parent="-eqFLUXX3JQwrmRsipEL-4" source="-eqFLUXX3JQwrmRsipEL-7" target="-eqFLUXX3JQwrmRsipEL-34">
          <mxGeometry width="50" height="50" relative="1" as="geometry">
            <mxPoint x="350" y="790" as="sourcePoint" />
            <mxPoint x="400" y="740" as="targetPoint" />
            <Array as="points">
              <mxPoint x="120" y="790" />
              <mxPoint x="310" y="790" />
              <mxPoint x="540" y="790" />
            </Array>
          </mxGeometry>
        </mxCell>
        <mxCell id="-eqFLUXX3JQwrmRsipEL-48" value="*当走MPS路线时，送入核心编码器的是一个通道的数据&lt;div&gt;*当不走MPS路线时，送入核心编码器的是两个通道的数据&lt;/div&gt;" style="text;html=1;align=center;verticalAlign=middle;resizable=0;points=[];autosize=1;strokeColor=none;fillColor=none;" vertex="1" parent="-eqFLUXX3JQwrmRsipEL-4">
          <mxGeometry x="195" y="940" width="330" height="40" as="geometry" />
        </mxCell>
        <mxCell id="-eqFLUXX3JQwrmRsipEL-49" value="&lt;div&gt;开启SBR后才能开启MPS&lt;/div&gt;MPS位于EncUsacFrame之前，用于编码空间参数信息并将双声道合并为单声道&lt;div&gt;SBR位于&lt;span style=&quot;background-color: transparent; color: light-dark(rgb(0, 0, 0), rgb(255, 255, 255));&quot;&gt;EncUsacFrame内部&lt;/span&gt;&lt;/div&gt;" style="text;html=1;align=center;verticalAlign=middle;resizable=0;points=[];autosize=1;strokeColor=none;fillColor=none;" vertex="1" parent="-eqFLUXX3JQwrmRsipEL-4">
          <mxGeometry x="460" y="40" width="440" height="60" as="geometry" />
        </mxCell>
        <mxCell id="-eqFLUXX3JQwrmRsipEL-50" value="" style="whiteSpace=wrap;html=1;fillColor=none;dashed=1;dashPattern=8 8;movable=1;resizable=1;rotatable=1;deletable=1;editable=1;locked=0;connectable=1;" vertex="1" parent="-eqFLUXX3JQwrmRsipEL-4">
          <mxGeometry x="625" y="340" width="590" height="230" as="geometry" />
        </mxCell>
        <mxCell id="-eqFLUXX3JQwrmRsipEL-51" value="如果开启SBR" style="text;html=1;align=center;verticalAlign=middle;whiteSpace=wrap;rounded=0;" vertex="1" parent="-eqFLUXX3JQwrmRsipEL-4">
          <mxGeometry x="600" y="150" width="130" height="30" as="geometry" />
        </mxCell>
      </root>
    </mxGraphModel>
  </diagram>
</mxfile>
